<svg width="156" height="118" viewBox="0 0 156 118" fill="none" xmlns="http://www.w3.org/2000/svg">
<path d="M22.358 0.991243C28.2125 0.887317 35.3488 3.1044 40.164 9.06283C42.3464 11.176 46.3649 21.2915 46.3649 21.2915L70.3718 84.9634C73.4896 92.6193 82.739 93.1736 85.4757 85.5524L92.9238 65.4946L105.637 98.9588C99.4365 110.217 93.4434 113.023 86.3764 115.622C78.1316 118.22 68.224 117.354 61.1224 112.92C58.7667 111.43 52.6005 107.411 48.4088 97.2267L23.0855 26.6263V90.8872L32.5428 63.7625L44.6675 97.6424C42.9007 105.437 37.2887 111.915 30.7067 114.963C23.5358 118.324 15.0139 117.146 8.53585 113.058C2.09244 108.312 0.291052 102.666 0.013916 92.6193L0.117843 23.0928C0.845325 11.5224 8.22407 5.21757 14.7714 2.37692C17.6813 1.37231 18.9284 1.09517 22.358 0.991243ZM132.831 116.903C126.942 117.007 119.841 114.79 115.025 108.866C112.843 106.753 108.859 96.6378 108.859 96.6378L84.8522 32.9658C81.7344 25.3099 72.485 24.7557 69.7483 32.3769L62.3002 52.4346L49.5866 18.9704C55.7875 7.71179 61.7806 4.90579 68.8822 2.37692C77.127 -0.221227 87.0346 0.644823 94.1362 5.079C96.4919 6.63789 102.658 10.6564 106.85 20.7718L132.104 91.3376V27.042L122.647 54.1667L110.522 20.2868C112.289 12.4924 117.901 6.01433 124.483 2.96584C131.654 -0.394438 140.175 0.783391 146.653 4.87115C153.097 9.65174 154.898 15.333 155.175 25.3099L155.037 94.8364C154.309 106.407 146.931 112.712 140.383 115.552C137.473 116.592 136.192 116.869 132.831 116.903Z" fill="white"/>
</svg>
