<svg width="151" height="47" viewBox="0 0 151 47" fill="none" xmlns="http://www.w3.org/2000/svg">
<g clip-path="url(#clip0_102_50)">
<mask id="mask0_102_50" style="mask-type:luminance" maskUnits="userSpaceOnUse" x="0" y="0" width="151" height="47">
<path d="M151 0H0V47H151V0Z" fill="white"/>
</mask>
<g mask="url(#mask0_102_50)">
<path d="M119.626 20.472H122.859V33.372H119.626V20.472ZM133.091 33.372L128.389 25.3868L128.499 33.3718H125.376V20.472H128.554L133.293 28.5663L133.165 20.4717H136.269V33.372H133.091ZM147.934 33.372V32.1844C147.585 32.4947 147.309 32.714 147.144 32.8237C145.931 33.6275 144.627 33.6641 144.113 33.6641C143.654 33.6641 142.698 33.6277 141.615 33.116C139.263 31.983 138.272 29.4067 138.272 26.9219C138.272 25.9715 138.455 22.5366 141.468 20.8555C142 20.545 143.084 20.0333 144.664 20.0333C147.089 20.0333 148.577 21.1663 149.256 21.7692C149.715 22.171 150.009 22.5366 150.377 23.0117L147.915 24.4916C147.86 24.4006 147.493 23.8159 147.089 23.4685C146.262 22.7193 145.27 22.6827 144.903 22.6827C144.664 22.6827 143.801 22.7009 143.121 23.1395C142.349 23.6327 141.505 24.7658 141.505 26.8304C141.505 27.1046 141.505 28.9135 142.405 30.0096C142.735 30.4116 143.176 30.6309 143.341 30.7224C143.58 30.8321 144.168 31.0696 144.903 31.0696C145.123 31.0696 145.527 31.0696 146.023 30.9051C146.28 30.8136 147.07 30.5031 147.456 29.7175C147.658 29.3155 147.713 28.7672 147.732 28.6575H144.829V26.2096H150.469V33.3718L147.934 33.372ZM9.79015 11.629C8.83972 12.9887 8.05558 14.4562 7.45431 16.0005C6.54196 16.541 5.66873 17.1443 4.84103 17.806C5.56946 15.0293 6.81737 12.4139 8.51943 10.0968C8.83554 10.6243 9.2525 11.1422 9.79015 11.629ZM50.159 23.5706C50.159 23.8583 50.1543 24.1462 50.142 24.4316C49.8601 31.9895 45.8776 38.6247 39.9499 42.5931C40.6971 41.4996 41.2877 40.2335 41.6807 38.8308L41.7097 38.7302C45.4847 35.1357 47.9243 30.1624 48.2041 24.633C48.2088 24.5249 48.2137 24.4196 48.2161 24.3115C48.2258 24.0646 48.2305 23.8175 48.2305 23.5706C48.2304 22.6961 48.1765 21.8225 48.069 20.9545C48.0245 20.6121 47.9722 20.2708 47.9123 19.9307C46.1742 10.0869 37.5174 2.58435 27.1324 2.58435C25.8186 2.58435 24.5312 2.7039 23.2827 2.93674C21.67 3.23299 20.0979 3.71672 18.5987 4.37795C18.5841 4.38497 18.5697 4.39225 18.5553 4.39719C18.2112 4.13801 17.879 3.86357 17.5597 3.57471C17.3521 3.38818 17.134 3.21361 16.9063 3.05186C19.9896 1.52436 23.4634 0.666016 27.1324 0.666016C38.9012 0.666016 48.638 9.49499 49.995 20.8441C50.0322 21.1407 50.062 21.4382 50.0843 21.7362C50.1107 22.0429 50.13 22.3521 50.1397 22.664C50.1543 22.9638 50.159 23.2661 50.159 23.5706ZM24.9967 44.4538C25.8353 45.3194 26.8576 46.0005 27.9977 46.4607C27.7094 46.4725 27.4209 46.4781 27.1324 46.4776C21.9858 46.4776 17.2245 44.7895 13.3844 41.9383C14.148 41.7272 14.8963 41.4645 15.6239 41.1519C18.4362 42.9852 21.6512 44.1177 24.9967 44.4538Z" fill="white"/>
<path d="M46.3968 21.7964C39.8953 21.3887 35.1343 22.7052 31.7665 24.4221C30.8046 24.8537 29.7052 25.4987 28.5291 26.4652C28.5103 26.481 28.491 26.4962 28.4711 26.5106C25.9785 28.4578 24.9102 30.2803 24.8455 30.3928C24.8428 30.3954 24.8428 30.3977 24.8428 30.3977C19.407 37.7015 10.919 43.0129 3.76676 38.2699C-3.38574 33.527 -0.0156155 18.3817 17.0226 14.9671C34.0613 11.5501 46.3968 21.7964 46.3968 21.7964Z" fill="white"/>
<path d="M28.4711 26.5098C27.314 27.4643 26.0869 28.7255 24.8455 30.3922C24.9105 30.2792 25.9785 28.457 28.4711 26.5098Z" fill="white"/>
<path d="M45.9707 23.4782C45.9707 23.4782 30.4879 24.3695 25.932 34.8086C21.3758 45.248 36.2801 49.1491 39.3597 38.1864C42.4393 27.2236 45.9707 23.4782 45.9707 23.4782ZM45.1182 18.7616C45.1182 18.7616 43.0635 11.9661 38.7722 10.4178C34.4806 8.86951 34.1029 13.3933 36.9278 14.3311C39.7532 15.2687 42.304 15.9745 45.1182 18.7616ZM30.7043 11.0882C30.7043 11.0882 21.6274 3.60721 14.2983 5.38158C6.96917 7.15569 10.6094 13.7246 15.3597 12.444C20.1093 11.1636 24.2689 9.8136 30.7043 11.0882Z" fill="white"/>
<path d="M63.475 44.3508L63.6075 38.4723L62.0486 44.3508H60.8361L59.2772 38.4723L59.4094 44.3508H58.0951V37.1953H60.0516L61.4576 42.506L62.8433 37.1953H64.7894V44.3508H63.475Z" fill="white"/>
<path d="M70.261 44.3508V37.1953H75.376V38.3912H71.5855V40.0736H75.0601V41.229H71.5855V43.1445H75.6307V44.3508H70.261Z" fill="white"/>
<path d="M80.5417 44.3508V37.1953H81.8968V43.1343H84.7496V44.3508H80.5417Z" fill="white"/>
<path d="M93.4814 41.2494C93.1146 41.067 92.6357 41.0772 91.7898 41.0772H91.0361V43.1953H92.544C92.9923 43.1953 93.5018 43.2257 93.838 42.8305C93.9297 42.7291 94.0622 42.5467 94.0622 42.2021C94.0622 41.9997 94.001 41.513 93.4814 41.2494ZM93.5423 38.6752C93.1961 38.2495 92.5641 38.2898 92.0853 38.2898H91.0361V40.0738H91.5048C91.8614 40.0738 92.218 40.0738 92.5845 40.0535C92.9208 40.0333 93.2471 39.9927 93.4916 39.7292C93.5731 39.6481 93.7155 39.4759 93.7155 39.1718C93.7155 39.0905 93.6951 38.8678 93.5423 38.6752ZM94.4901 44.0266C93.8584 44.3814 93.2162 44.351 92.5237 44.351H89.7011V37.1953H92.2789C92.6357 37.1953 93.0025 37.1953 93.3591 37.2259C93.5833 37.2462 94.1742 37.3068 94.6429 37.8034C94.9377 38.1125 95.1018 38.5225 95.1014 38.9486C95.1014 39.1515 95.0505 39.861 94.4493 40.236C94.2761 40.3475 94.1131 40.388 93.9093 40.4285C94.001 40.4488 94.2252 40.4893 94.4595 40.6211C94.8263 40.8137 95.4376 41.29 95.4376 42.324C95.4376 43.0433 95.132 43.6615 94.4901 44.0266Z" fill="white"/>
<path d="M117.986 42.8913C117.752 43.6112 116.927 44.5332 115.164 44.5332C114.318 44.5332 113.473 44.3305 112.882 43.6819C112.79 43.5906 112.545 43.297 112.423 42.9116C112.311 42.5468 112.311 42.2123 112.311 41.4522V37.1953H113.666V41.5941C113.666 42.0198 113.666 42.1715 113.737 42.3846C113.87 42.8103 114.257 43.2359 115.215 43.2359C115.388 43.2359 116.376 43.2359 116.672 42.4251C116.753 42.192 116.763 41.9995 116.763 41.5229V37.1953H118.108V41.3205C118.108 42.1414 118.119 42.4857 117.986 42.8913Z" fill="white"/>
<path d="M127.125 38.5638C126.891 38.4118 126.616 38.351 126.045 38.351H124.955V40.5806H125.434C126.219 40.5806 126.708 40.5806 127.034 40.4083C127.238 40.2968 127.574 40.0333 127.574 39.4557C127.574 39.273 127.554 38.8476 127.125 38.5638ZM127.584 44.351L126.168 41.6954H124.955V44.351H123.621V37.1953H126.565C126.891 37.1953 127.859 37.226 128.501 38.0672C128.919 38.6142 128.939 39.2327 128.939 39.4658C128.939 39.577 128.929 39.932 128.807 40.2664C128.695 40.5604 128.348 41.1788 127.523 41.4319L129.123 44.351H127.584Z" fill="white"/>
<path d="M138.466 44.3508L135.317 39.3338L135.399 44.3508H134.085V37.1953H135.297L138.486 42.2427L138.323 37.1953H139.648V44.3508H138.466Z" fill="white"/>
<path d="M145.129 44.3508V37.1953H150.245V38.3912H146.454V40.0736H149.929V41.229H146.454V43.1445H150.499V44.3508H145.129Z" fill="white"/>
<path d="M69.693 15.8387C69.0705 16.5354 67.3585 18.0834 64.6741 18.0834C64.1877 18.0834 63.0593 18.0255 61.8728 17.5029C58.2544 15.8774 58.0791 11.9106 58.0791 10.8269C58.0791 9.99504 58.1766 7.84698 59.7524 5.95073C60.375 5.17659 61.9313 3.58984 64.7324 3.58984C66.5805 3.58984 68.3703 4.34475 69.5762 5.71841C70.082 6.29895 70.3934 6.89898 70.5295 7.13104L67.8256 8.46624C67.631 8.0793 67.4946 7.86621 67.3781 7.71159C67.1252 7.34388 66.2887 6.39562 64.8881 6.39562C64.4991 6.39562 63.5847 6.47306 62.8065 7.20849C62.2424 7.73082 61.5031 8.87241 61.5031 10.7497C61.5031 10.9238 61.5031 11.2528 61.5616 11.6785C61.7949 13.5555 62.6121 14.4068 63.3705 14.8325C63.6236 14.9874 64.1488 15.2194 64.8881 15.2194C66.8138 15.2194 67.5531 13.7296 67.8643 13.207L70.5878 14.581C70.1795 15.2002 69.8876 15.6064 69.693 15.8387Z" fill="white"/>
<path d="M77.7847 7.26655L76.0923 13.033H79.5743L77.7847 7.26655ZM81.0334 17.6771L80.3523 15.4906H75.2948L74.6139 17.6771H70.9567L76.0534 4.01562H79.6325L84.6906 17.6771H81.0334Z" fill="white"/>
<path d="M92.4129 6.55035H89.4947V10.2657H92.3348C92.4711 10.2657 92.8601 10.2657 93.2491 10.1303C94.3579 9.76258 94.3971 8.71765 94.3971 8.36943C94.3971 6.58908 93.0158 6.55035 92.4129 6.55035ZM94.3971 17.6768L91.6542 12.8007H89.5141V17.6768H86.0514V4.01563H92.2376C92.6266 4.01563 93.0158 4.01561 93.4049 4.03485C94.0274 4.07357 96.2062 4.20896 97.2761 6.16341C97.4704 6.53112 97.8208 7.3245 97.8208 8.44686C97.8208 9.9754 97.2178 10.7883 96.7507 11.2334C96.5563 11.4268 96.323 11.6009 96.1088 11.7363C95.8562 11.8719 95.5643 12.0073 95 12.2201L98.1711 17.6768H94.3971Z" fill="white"/>
<path d="M105.329 7.26655L103.636 13.033H107.118L105.329 7.26655ZM108.577 17.6771L107.896 15.4906H102.839L102.158 17.6771H98.5005L103.597 4.01562H107.177L112.235 17.6771H108.577Z" fill="white"/>
<path d="M119.821 17.6771H116.319L111.611 4.01562H115.269L118.109 13.7297L120.929 4.01562H124.587L119.821 17.6771Z" fill="white"/>
<path d="M130.675 7.26655L128.982 13.033H132.465L130.675 7.26655ZM133.923 17.6771L133.243 15.4906H128.185L127.504 17.6771H123.846L128.943 4.01562H132.523L137.581 17.6771H133.923Z" fill="white"/>
<path d="M147.112 17.6771L142.132 9.221L142.248 17.6771H138.942V4.01562H142.307L147.326 12.5879L147.19 4.01562H150.477V17.6771H147.112Z" fill="white"/>
<path d="M69.0036 31.5427C68.4158 32.2004 66.7992 33.6622 64.2642 33.6622C63.8052 33.6622 62.7396 33.6073 61.6191 33.1141C58.2025 31.5793 58.0371 27.8336 58.0371 26.8103C58.0371 26.0247 58.1291 23.9964 59.6169 22.2057C60.2047 21.4749 61.6742 19.9766 64.3194 19.9766C66.0645 19.9766 67.7545 20.6891 68.8933 21.9866C69.3709 22.5347 69.6648 23.1012 69.7933 23.3203L67.2401 24.5811C67.0565 24.2158 66.928 24.0146 66.8177 23.8686C66.5789 23.5214 65.7889 22.6259 64.4665 22.6259C64.0991 22.6259 63.2357 22.6992 62.5008 23.3935C61.9681 23.8868 61.2701 24.965 61.2701 26.7372C61.2701 26.9017 61.2701 27.2123 61.3252 27.6143C61.5457 29.3866 62.3172 30.1906 63.0335 30.5926C63.2725 30.7387 63.7684 30.958 64.4665 30.958C66.285 30.958 66.9831 29.5511 67.277 29.0576L69.8485 30.3551C69.4629 30.9398 69.1872 31.3234 69.0036 31.5427Z" fill="white"/>
<path d="M71.4653 33.2789V20.3789H74.6983V30.5563H79.7681V33.2789H71.4653Z" fill="white"/>
<path d="M81.4213 33.2789V20.3789H91.01V22.864H84.6543V25.221H90.5875V27.6694H84.6543V30.7392H91.5978V33.2789H81.4213Z" fill="white"/>
<path d="M98.4682 23.4487L96.8701 28.8937H100.158L98.4682 23.4487ZM101.536 33.2789L100.893 31.2143H96.1169L95.474 33.2789H92.0205L96.8332 20.3789H100.213L104.989 33.2789H101.536Z" fill="white"/>
<path d="M113.99 33.2789L109.288 25.294L109.398 33.2789H106.275V20.3789H109.453L114.192 28.4734L114.064 20.3789H117.168V33.2789H113.99Z" fill="white"/>
<path d="M133.131 33.2789L128.429 25.294L128.539 33.2789H125.416V20.3789H128.594L133.333 28.4734L133.204 20.3789H136.309V33.2789H133.131Z" fill="white"/>
<path d="M147.973 33.2779V32.0903C147.624 32.4009 147.349 32.6202 147.184 32.7298C145.971 33.5336 144.667 33.5703 144.153 33.5703C143.693 33.5703 142.738 33.5336 141.655 33.0222C139.303 31.8892 138.311 29.3129 138.311 26.828C138.311 25.8777 138.495 22.4428 141.508 20.7617C142.04 20.4511 143.124 19.9395 144.704 19.9395C147.129 19.9395 148.616 21.0722 149.296 21.6754C149.755 22.0771 150.049 22.4428 150.417 22.9178L147.955 24.3977C147.9 24.3065 147.533 23.7218 147.129 23.3746C146.302 22.6255 145.31 22.5888 144.942 22.5888C144.704 22.5888 143.84 22.607 143.161 23.0457C142.389 23.5389 141.544 24.6719 141.544 26.7365C141.544 27.0107 141.544 28.8196 142.444 29.9157C142.775 30.3178 143.216 30.5371 143.381 30.6286C143.62 30.7382 144.208 30.9757 144.942 30.9757C145.163 30.9757 145.567 30.9757 146.063 30.8113C146.32 30.7198 147.11 30.4092 147.496 29.6234C147.698 29.2216 147.753 28.6733 147.772 28.5637H144.869V26.1155H150.508V33.2779H147.973Z" fill="white"/>
<path d="M63.5502 44.2648L63.6826 38.3864L62.1238 44.2648H60.9113L59.3524 38.3864L59.4847 44.2648H58.1703V37.1094H60.1268L61.5328 42.42L62.9185 37.1094H64.8645V44.2648H63.5502ZM70.3361 44.2648V37.1094H75.4511V38.3053H71.6607V39.9877H75.1352V41.143H71.6607V43.0585H75.7058V44.2649L70.3361 44.2648ZM80.617 44.2648V37.1094H81.9721V43.0484H84.825V44.2648H80.617Z" fill="white"/>
<mask id="mask1_102_50" style="mask-type:luminance" maskUnits="userSpaceOnUse" x="-27" y="-35" width="209" height="117">
<path d="M-27 -35H182V82H-27V-35Z" fill="white"/>
</mask>
<g mask="url(#mask1_102_50)">
<path d="M93.5564 41.1636C93.1899 40.9812 92.711 40.9913 91.8651 40.9913H91.1111V43.1095H92.6191C93.0674 43.1095 93.5768 43.1399 93.913 42.7446C94.0045 42.6433 94.1372 42.4609 94.1372 42.1163C94.1372 41.9138 94.0761 41.4271 93.5564 41.1636ZM93.6173 38.5894C93.2711 38.1637 92.6392 38.204 92.1603 38.204H91.1111V39.988H91.5798C91.9364 39.988 92.293 39.988 92.6596 39.9677C92.9958 39.9474 93.3221 39.9069 93.5666 39.6434C93.6481 39.5623 93.7905 39.39 93.7905 39.086C93.7905 39.0046 93.7701 38.7817 93.6173 38.5894ZM94.5651 43.9408C93.9334 44.2955 93.2913 44.2651 92.5987 44.2651H89.7761V37.1094H92.3539C92.7108 37.1094 93.0776 37.1094 93.4342 37.1401C93.6583 37.1604 94.2493 37.2209 94.718 37.7175C95.0127 38.0267 95.1769 38.4366 95.1764 38.8627C95.1764 39.0657 95.1255 39.7751 94.5244 40.1501C94.3512 40.2619 94.1881 40.3021 93.9844 40.3427C94.0758 40.363 94.3002 40.4035 94.5346 40.5352C94.9014 40.7278 95.5127 41.2041 95.5127 42.2381C95.5127 42.9575 95.207 43.5757 94.5651 43.9408Z" fill="white"/>
</g>
<mask id="mask2_102_50" style="mask-type:luminance" maskUnits="userSpaceOnUse" x="-27" y="-35" width="209" height="117">
<path d="M-27 -35H182V82H-27V-35Z" fill="white"/>
</mask>
<g mask="url(#mask2_102_50)">
<path d="M105.447 39.0949C105.07 38.4868 104.5 38.1524 103.777 38.1524C103.458 38.1517 103.144 38.2244 102.859 38.3649C102.35 38.6388 101.718 39.3077 101.718 40.6455C101.718 40.9194 101.728 42.2369 102.737 42.8955C103.175 43.1795 103.613 43.1998 103.797 43.1998C103.94 43.1998 104.266 43.1896 104.622 43.0275C105.152 42.784 105.845 42.1759 105.875 40.828C105.886 40.2401 105.774 39.6118 105.447 39.0949ZM106.232 43.4225C106.069 43.5948 105.651 44.0105 105.009 44.2436C104.785 44.3247 104.367 44.4463 103.756 44.4463C102.737 44.4463 101.963 44.1119 101.29 43.3419C100.618 42.5813 100.332 41.6894 100.332 40.6965C100.332 40.4631 100.343 39.9158 100.546 39.3077C101.015 37.8785 102.248 36.9258 103.787 36.9258C105.172 36.9258 105.997 37.676 106.334 38.0609C106.711 38.4871 107.24 39.3179 107.231 40.6861C107.231 41.132 107.18 42.3988 106.232 43.4225Z" fill="white"/>
</g>
<mask id="mask3_102_50" style="mask-type:luminance" maskUnits="userSpaceOnUse" x="-27" y="-35" width="209" height="117">
<path d="M-27 -35H182V82H-27V-35Z" fill="white"/>
</mask>
<g mask="url(#mask3_102_50)">
<path d="M118.061 42.8059C117.827 43.5257 117.002 44.4477 115.239 44.4477C114.393 44.4477 113.548 44.245 112.957 43.5964C112.865 43.5052 112.62 43.2116 112.498 42.8262C112.386 42.4613 112.386 42.1269 112.386 41.3665V37.1099H113.741V41.5084C113.741 41.9338 113.741 42.0856 113.812 42.2989C113.945 42.7243 114.332 43.15 115.29 43.15C115.463 43.15 116.451 43.15 116.747 42.3392C116.828 42.1063 116.838 41.9138 116.838 41.4372V37.1094H118.183V41.2347C118.183 42.0557 118.194 42.4003 118.061 42.8059Z" fill="white"/>
</g>
<mask id="mask4_102_50" style="mask-type:luminance" maskUnits="userSpaceOnUse" x="-27" y="-35" width="209" height="117">
<path d="M-27 -35H182V82H-27V-35Z" fill="white"/>
</mask>
<g mask="url(#mask4_102_50)">
<path d="M127.2 38.4781C126.966 38.3259 126.691 38.2651 126.12 38.2651H125.03V40.4947H125.509C126.294 40.4947 126.783 40.4947 127.109 40.3224C127.313 40.2109 127.649 39.9474 127.649 39.3697C127.649 39.1871 127.629 38.7619 127.2 38.4781ZM127.659 44.2651L126.243 41.6095H125.031V44.2654H123.696V37.1094H126.64C126.967 37.1094 127.934 37.1401 128.576 37.9813C128.994 38.5283 129.014 39.1468 129.014 39.3799C129.014 39.4911 129.004 39.8461 128.882 40.1805C128.77 40.4744 128.423 41.0929 127.598 41.346L129.198 44.2651H127.659Z" fill="white"/>
</g>
<mask id="mask5_102_50" style="mask-type:luminance" maskUnits="userSpaceOnUse" x="-27" y="-35" width="209" height="117">
<path d="M-27 -35H182V82H-27V-35Z" fill="white"/>
</mask>
<g mask="url(#mask5_102_50)">
<path d="M138.541 44.2648L135.392 39.2478L135.474 44.2648H134.16V37.1094H135.372L138.561 42.1568L138.398 37.1094H139.723V44.2648H138.541Z" fill="white"/>
</g>
<mask id="mask6_102_50" style="mask-type:luminance" maskUnits="userSpaceOnUse" x="-27" y="-35" width="209" height="117">
<path d="M-27 -35H182V82H-27V-35Z" fill="white"/>
</mask>
<g mask="url(#mask6_102_50)">
<path d="M145.205 44.2648V37.1094H150.32V38.3053H146.529V39.9877H150.004V41.143H146.529V43.0582H150.574V44.2648H145.205Z" fill="white"/>
</g>
</g>
</g>
<defs>
<clipPath id="clip0_102_50">
<rect width="151" height="47" fill="white"/>
</clipPath>
</defs>
</svg>
