<svg width="185" height="24" viewBox="0 0 185 24" fill="none" xmlns="http://www.w3.org/2000/svg">
<path d="M10.6406 23.375C4.3438 23.375 0.3125 18.7812 0.3125 11.6094C0.3125 4.56252 4.3281 0.078125 10.6406 0.078125C14.7656 0.078125 18.1406 2.20312 19.3594 5.35942C19.5469 5.84382 19.5781 6.20312 19.5781 6.54692C19.5781 7.31252 19.0781 7.82812 18.2969 7.82812C17.6094 7.82812 17.1875 7.48443 16.8281 6.65623C15.6719 4.04693 13.4844 2.67192 10.6406 2.67192C6 2.67192 3.2031 6.01562 3.2031 11.5938C3.2031 17.2656 6.0469 20.7812 10.6406 20.7812C14.6406 20.7812 17.3906 18.1875 17.3906 14.4062V14H12.1406C11.3594 14 10.7969 13.5 10.7969 12.7656C10.7969 12.0312 11.3594 11.5312 12.1406 11.5312H18.7969C19.6562 11.5312 20.2031 12.0938 20.2031 12.9844V13.6719C20.2031 19.7656 16.6562 23.375 10.6406 23.375ZM25.719 23.2188C24.8594 23.2188 24.3125 22.6562 24.3125 21.7656V1.68752C24.3125 0.796925 24.8594 0.234425 25.719 0.234425C26.578 0.234425 27.125 0.796925 27.125 1.68752V21.7656C27.125 22.6562 26.578 23.2188 25.719 23.2188ZM41.453 23.375C35.156 23.375 31.125 18.7812 31.125 11.6094C31.125 4.56252 35.141 0.078125 41.453 0.078125C45.578 0.078125 48.953 2.20312 50.172 5.35942C50.359 5.84382 50.391 6.20312 50.391 6.54692C50.391 7.31252 49.891 7.82812 49.109 7.82812C48.422 7.82812 48 7.48443 47.641 6.65623C46.484 4.04693 44.297 2.67192 41.453 2.67192C36.812 2.67192 34.016 6.01562 34.016 11.5938C34.016 17.2656 36.859 20.7812 41.453 20.7812C45.453 20.7812 48.203 18.1875 48.203 14.4062V14H42.953C42.172 14 41.609 13.5 41.609 12.7656C41.609 12.0312 42.172 11.5312 42.953 11.5312H49.609C50.469 11.5312 51.016 12.0938 51.016 12.9844V13.6719C51.016 19.7656 47.469 23.375 41.453 23.375ZM55.203 23.2188C54.391 23.2188 53.797 22.7031 53.797 21.9844C53.797 21.7812 53.844 21.5469 53.969 21.2031L61.219 1.59382C61.562 0.671924 62.141 0.234425 63.062 0.234425C63.922 0.234425 64.484 0.656225 64.828 1.57812L72.094 21.2031C72.219 21.5469 72.266 21.7812 72.266 21.9844C72.266 22.7031 71.672 23.2188 70.859 23.2188C70.156 23.2188 69.75 22.8906 69.484 22.1406L67.484 16.5469H58.562L56.578 22.1406C56.312 22.8906 55.906 23.2188 55.203 23.2188ZM59.375 14.1562H66.688L63.078 3.87502H62.984L59.375 14.1562ZM78.203 23C76.391 23 75.328 21.9062 75.328 20V3.45312C75.328 1.54692 76.391 0.453125 78.203 0.453125H85.812C90.25 0.453125 92.922 2.59383 92.922 6.07812C92.922 8.60943 91.016 10.625 88.516 10.9688V11.0938C91.562 11.2344 93.969 13.5 93.969 16.5C93.969 20.4531 90.922 23 86.094 23H78.203ZM81.062 9.64062H84.016C86.094 9.64062 87.344 8.65623 87.344 7.03123C87.344 5.45313 86.219 4.51562 84.297 4.51562H81.062V9.64062ZM81.062 18.9375H84.469C86.828 18.9375 88.141 17.9062 88.141 16C88.141 14.1562 86.797 13.125 84.438 13.125H81.062V18.9375ZM106.609 23.3906C100.734 23.3906 96.891 20.0625 96.891 15V3.09382C96.891 1.18752 97.953 0.109425 99.766 0.109425C101.578 0.109425 102.625 1.18752 102.625 3.09382V14.3906C102.625 17.0156 104.047 18.5781 106.609 18.5781C109.156 18.5781 110.578 17.0156 110.578 14.3906V3.09382C110.578 1.18752 111.625 0.109425 113.438 0.109425C115.266 0.109425 116.312 1.18752 116.312 3.09382V15C116.312 20.0625 112.469 23.3906 106.609 23.3906ZM123.109 23C121.297 23 120.234 21.9062 120.234 20V3.45312C120.234 1.54692 121.297 0.453125 123.109 0.453125H129.391C136.203 0.453125 140.203 4.40622 140.203 11.5938C140.203 18.7969 136.188 23 129.391 23H123.109ZM125.969 18.375H128.641C132.375 18.375 134.375 16.1094 134.375 11.6094C134.375 7.37502 132.266 5.07812 128.641 5.07812H125.969V18.375ZM146.359 23C144.547 23 143.484 21.9062 143.484 20V3.45312C143.484 1.54692 144.547 0.453125 146.359 0.453125H152.641C159.453 0.453125 163.453 4.40622 163.453 11.5938C163.453 18.7969 159.438 23 152.641 23H146.359ZM149.219 18.375H151.891C155.625 18.375 157.625 16.1094 157.625 11.6094C157.625 7.37502 155.516 5.07812 151.891 5.07812H149.219V18.375ZM174.656 23.3438C172.828 23.3438 171.781 22.2656 171.781 20.3594V15.25L165.125 4.78123C164.719 4.14063 164.531 3.48443 164.531 2.82812C164.531 1.25003 165.75 0.109425 167.422 0.109425C168.672 0.109425 169.344 0.562525 170.109 1.93752L174.656 9.82812H174.766L179.312 1.93752C180.047 0.625025 180.797 0.109425 181.938 0.109425C183.562 0.109425 184.766 1.25003 184.766 2.78123C184.766 3.46883 184.578 4.10943 184.156 4.76562L177.516 15.25V20.3594C177.516 22.2656 176.469 23.3438 174.656 23.3438Z" fill="white"/>
</svg>
